Coordinates
version=1
nRows=10
nColumns=40
inDegrees=yes

Units are S.I. units (second, meters, Newtons, ...)
If the header above contains a line with 'inDegrees', this indicates whether rotational values are in degrees (yes) or radians (no).

endheader
time	pelvis_tilt	pelvis_list	pelvis_rotation	pelvis_tx	pelvis_ty	pelvis_tz	hip_flexion_r	hip_adduction_r	hip_rotation_r	knee_angle_r	knee_angle_r_beta	ankle_angle_r	subtalar_angle_r	mtp_angle_r	hip_flexion_l	hip_adduction_l	hip_rotation_l	knee_angle_l	knee_angle_l_beta	ankle_angle_l	subtalar_angle_l	mtp_angle_l	lumbar_extension	lumbar_bending	lumbar_rotation	arm_flex_r	arm_add_r	arm_rot_r	elbow_flex_r	pro_sup_r	wrist_flex_r	wrist_dev_r	arm_flex_l	arm_add_l	arm_rot_l	elbow_flex_l	pro_sup_l	wrist_flex_l	wrist_dev_l
      0.00500000	     -7.34350986	      0.69804207	     -0.43379955	      0.22313776	      0.90129223	     -1.19436284	      8.29296952	    -19.07536516	    -29.75491765	      9.25163352	      0.16147147	     -2.39362419	     -0.86748122	      0.00000000	      7.78838139	    -16.88478160	    -36.39071507	      5.41654221	      0.09453650	     -2.18252095	     16.32542091	      0.00000000	    -15.74166620	     -1.12416540	     -4.15365009	     43.68278589	    -16.88421480	     43.68278589	     75.21889007	     44.89271612	      0.00000000	      0.00000000	     43.68278589	    -16.88421480	     43.68278589	     75.21889007	     44.89271612	      0.00000000	      0.00000000
      0.01000000	     -7.36599232	      0.68784559	     -0.42263265	      0.22316721	      0.90130422	     -1.19443951	      8.24781512	    -19.01729830	    -29.65411528	      9.09217348	      0.15868836	     -2.53738310	     -1.05211543	      0.00000000	      7.81499664	    -16.88644102	    -36.36369416	      5.41399319	      0.09449201	     -2.18682894	     16.30213297	      0.00000000	    -15.72251646	     -1.14704879	     -4.32025008	     43.69788830	    -16.84767020	     43.69788830	     75.21054389	     44.90302681	      0.00000000	      0.00000000	     43.69788830	    -16.84767020	     43.69788830	     75.21054389	     44.90302681	      0.00000000	      0.00000000
      0.01500000	     -7.44560879	      0.62444198	     -0.30956199	      0.22322156	      0.90121348	     -1.19465045	      8.28937789	    -18.99946777	    -29.96021814	      9.13228986	      0.15938853	     -2.48919756	     -0.79654320	      0.00000000	      7.97162993	    -16.95373497	    -36.23069598	      5.47731410	      0.09559717	     -2.15688063	     16.29677350	      0.00000000	    -15.63411855	     -1.00836430	     -4.36149364	     43.71176452	    -16.81575530	     43.71176452	     75.20377255	     44.91031974	      0.00000000	      0.00000000	     43.71176452	    -16.81575530	     43.71176452	     75.20377255	     44.91031974	      0.00000000	      0.00000000
      0.02000000	     -7.43055390	      0.72695812	     -0.37010522	      0.22325757	      0.90125952	     -1.19460312	      8.28308641	    -19.08741406	    -29.79559329	      9.09874075	      0.15880298	     -2.48094742	     -0.89498633	      0.00000000	      7.88185609	    -16.80792884	    -36.25030502	      5.36069327	      0.09356175	     -2.23466801	     16.19395576	      0.00000000	    -15.63730980	     -1.14358174	     -4.35686529	     43.83578744	    -16.58421525	     43.83578744	     75.16857212	     44.93393313	      0.00000000	      0.00000000	     43.83578744	    -16.58421525	     43.83578744	     75.16857212	     44.93393313	      0.00000000	      0.00000000
      0.02500000	     -7.44836889	      0.70019653	     -0.45985949	      0.22327203	      0.90126684	     -1.19447342	      8.30931623	    -19.00909460	    -29.63631516	      9.00780947	      0.15721593	     -2.59681853	     -1.02492251	      0.00000000	      7.86679866	    -16.86036089	    -36.35649942	      5.37940776	      0.09388838	     -2.19543542	     16.23996224	      0.00000000	    -15.61761779	     -1.15818746	     -4.33780796	     43.86566019	    -16.51883419	     43.86566019	     75.15596350	     44.94446879	      0.00000000	      0.00000000	     43.86566019	    -16.51883419	     43.86566019	     75.15596350	     44.94446879	      0.00000000	      0.00000000
      0.03000000	     -7.48576913	      0.70709715	     -0.45883743	      0.22331549	      0.90117564	     -1.19448688	      8.43055348	    -19.09898460	    -29.89103909	      9.22627947	      0.16102895	     -2.40558535	     -0.63029728	      0.00000000	      7.96183699	    -16.91095608	    -36.50238423	      5.54498314	      0.09677821	     -2.05110055	     16.43800929	      0.00000000	    -15.55646011	     -1.13989491	     -4.27628479	     43.89477159	    -16.45436101	     43.89477159	     75.14363366	     44.95388774	      0.00000000	      0.00000000	     43.89477159	    -16.45436101	     43.89477159	     75.14363366	     44.95388774	      0.00000000	      0.00000000
      0.03500000	     -7.50043674	      0.72151362	     -0.47237118	      0.22340107	      0.90122699	     -1.19454139	      8.34631843	    -19.02523526	    -29.63783726	      8.97092310	      0.15657214	     -2.61120576	     -1.02801981	      0.00000000	      7.90281592	    -16.82902481	    -36.35789590	      5.37097388	      0.09374118	     -2.16811262	     16.23621594	      0.00000000	    -15.53022063	     -1.17343009	     -4.36094256	     43.92880221	    -16.37902344	     43.92880221	     75.12970527	     44.96307939	      0.00000000	      0.00000000	     43.92880221	    -16.37902344	     43.92880221	     75.12970527	     44.96307939	      0.00000000	      0.00000000
      0.04000000	     -7.52937826	      0.75134447	     -0.48000177	      0.22343124	      0.90120617	     -1.19455289	      8.37733866	    -19.05169981	    -29.60372310	      8.95431359	      0.15628225	     -2.64135298	     -1.03517250	      0.00000000	      7.94787455	    -16.81320272	    -36.41207126	      5.42549927	      0.09469283	     -2.14960665	     16.27797730	      0.00000000	    -15.48902608	     -1.21242285	     -4.39137543	     43.94710928	    -16.33570661	     43.94710928	     75.12121289	     44.96870062	      0.00000000	      0.00000000	     43.94710928	    -16.33570661	     43.94710928	     75.12121289	     44.96870062	      0.00000000	      0.00000000
      0.04500000	     -7.54959104	      0.73970768	     -0.52068675	      0.22349229	      0.90118103	     -1.19449759	      8.42667452	    -19.04593628	    -29.60860579	      8.99380095	      0.15697144	     -2.58805488	     -0.96748304	      0.00000000	      7.93593103	    -16.82054678	    -36.41241877	      5.39070340	      0.09408552	     -2.14819945	     16.25582559	      0.00000000	    -15.44792781	     -1.21488349	     -4.38674954	     43.97166197	    -16.27591491	     43.97166197	     75.10943723	     44.97609176	      0.00000000	      0.00000000	     43.97166197	    -16.27591491	     43.97166197	     75.10943723	     44.97609176	      0.00000000	      0.00000000
      0.05000000	     -7.55183035	      0.73452176	     -0.51207758	      0.22355067	      0.90119869	     -1.19452449	      8.40042248	    -19.02521553	    -29.58668795	      8.94018416	      0.15603565	     -2.64812713	     -1.02909323	      0.00000000	      7.94162787	    -16.82390577	    -36.38715062	      5.39818868	      0.09421617	     -2.15276713	     16.21402307	      0.00000000	    -15.42513123	     -1.19232047	     -4.36351692	     44.00250288	    -16.20876092	     44.00250288	     75.09807299	     44.98150766	      0.00000000	      0.00000000	     44.00250288	    -16.20876092	     44.00250288	     75.09807299	     44.98150766	      0.00000000	      0.00000000
